<svg version="1.0" xmlns="http://www.w3.org/2000/svg"  width="500.000000pt" height="500.000000pt" viewBox="0 0 500.000000 500.000000"  preserveAspectRatio="xMidYMid meet">  <g transform="translate(0.000000,500.000000) scale(0.050000,-0.050000)" fill="#000000" stroke="none"> <path d="M4473 9140 c-7 -60 -22 -227 -33 -370 -12 -143 -26 -305 -32 -360 -6 -55 -14 -158 -17 -230 -4 -71 -11 -152 -18 -180 -6 -27 -16 -144 -21 -260 -5 -115 -24 -406 -42 -645 l-33 -434 50 -86 c28 -47 74 -127 101 -179 71 -130 81 -130 148 -11 32 58 79 142 105 187 l47 83 -25 307 c-13 170 -29 358 -34 418 -5 61 -14 173 -20 250 -6 77 -15 181 -19 230 -5 50 -13 153 -19 230 -6 77 -19 226 -30 330 -11 105 -30 309 -42 454 -28 340 -48 420 -66 266z m60 -2090 c-1 -40 -12 -70 -26 -70 -13 0 -28 -11 -34 -25 -11 -27 -21 35 -13 85 13 93 76 101 73 10z m7 -195 c0 -58 -9 -118 -19 -134 -13 -20 -11 -36 5 -47 15 -12 11 -13 -13 -6 -28 9 -34 5 -25 -19 6 -17 4 -26 -5 -21 -27 17 -26 214 2 248 19 25 19 28 0 17 -14 -9 -25 -10 -25 -3 0 17 48 68 65 69 8 1 15 -46 15 -104z"/> <path d="M3620 8438 c0 -12 16 -46 37 -75 114 -167 130 -288 134 -1023 5 -917 -5 -868 228 -1078 228 -204 361 -428 444 -747 33 -126 43 -121 92 50 87 308 154 424 375 655 274 286 255 205 260 1090 5 805 16 881 152 1073 65 91 31 92 -132 8 -329 -172 -332 -182 -318 -1056 13 -806 28 -739 -229 -1033 -33 -38 -76 -103 -95 -145 -42 -94 -79 -98 -115 -12 -16 36 -83 128 -151 205 -201 230 -202 235 -191 690 13 561 14 964 2 1010 -5 22 -11 51 -11 65 -6 98 -482 417 -482 323z"/> <path d="M3090 5464 c-147 -57 -370 -182 -370 -209 0 -8 -11 -15 -24 -15 -13 0 -49 -24 -80 -53 l-55 -54 -481 -1 c-264 -1 -480 3 -480 8 0 6 42 47 95 93 52 46 90 89 83 95 -11 11 -322 -101 -491 -177 -35 -16 -95 -35 -135 -42 -117 -22 -31 -87 118 -89 33 -1 243 -58 415 -113 57 -19 40 24 -35 90 -38 34 -70 67 -70 72 0 6 205 11 455 11 l455 0 -82 -75 c-488 -444 -876 -606 -933 -389 -23 92 -135 78 -135 -17 0 -104 177 -170 372 -139 174 28 5408 30 5570 2 215 -37 419 63 359 176 -40 74 -121 61 -121 -20 0 -114 -243 -108 -447 11 -84 49 -362 268 -492 387 l-70 64 449 0 448 0 -78 -80 c-104 -107 -89 -111 152 -42 115 32 249 65 298 73 122 18 164 41 110 60 -22 8 -167 63 -322 122 -341 129 -360 131 -252 21 46 -47 84 -90 84 -95 0 -5 -216 -8 -480 -6 l-480 3 -65 57 c-395 346 -841 417 -1182 189 -270 -182 -392 -228 -453 -172 -56 51 -80 20 -80 -102 0 -113 32 -155 85 -113 67 52 237 65 877 65 l665 0 168 -125 c92 -69 210 -158 261 -197 52 -40 130 -92 174 -115 44 -23 90 -49 103 -57 13 -9 -1109 -16 -2493 -16 -1384 0 -2506 7 -2493 16 13 8 59 34 103 57 82 43 189 120 446 322 l147 115 651 0 c444 0 677 -8 730 -24 62 -18 88 -18 118 0 30 19 38 19 38 -1 1 -46 33 -77 67 -64 25 10 33 39 33 119 0 128 -39 177 -87 108 l-31 -44 -113 46 c-62 26 -173 87 -246 136 -298 201 -497 234 -773 128z m387 -185 c76 -18 383 -149 383 -164 0 -3 -239 -6 -531 -6 -603 -1 -621 8 -259 129 192 65 269 73 407 41z m2415 -26 c123 -42 308 -125 308 -139 0 -3 -252 -5 -560 -5 l-560 0 75 46 c225 137 510 175 737 98z"/> <path d="M4408 5225 c-30 -20 -24 -217 7 -248 43 -43 68 10 61 134 -6 113 -24 143 -68 114z"/> <path d="M4544 5216 c-34 -34 -30 -206 5 -235 48 -40 71 -5 71 108 0 114 -34 169 -76 127z"/> <path d="M1679 3766 c-168 -455 -312 -784 -349 -799 -66 -25 -23 -47 93 -47 l124 0 -42 45 c-40 44 -21 186 32 238 43 42 300 31 320 -14 48 -107 49 -182 1 -227 l-46 -42 174 0 c163 0 223 22 136 49 -22 7 -61 69 -99 157 -91 214 -238 598 -246 644 -12 64 -74 61 -98 -4z m70 -301 c69 -176 69 -176 -54 -168 -132 9 -126 -4 -73 161 56 174 62 175 127 7z"/> <path d="M2100 3787 c0 -14 19 -30 42 -38 147 -46 316 -650 218 -775 l-40 -51 162 -6 c187 -8 197 -4 129 52 -44 36 -51 58 -55 183 l-4 143 134 210 c74 116 157 226 184 243 79 52 59 68 -80 65 -141 -3 -143 -5 -100 -61 25 -33 19 -55 -66 -214 -106 -199 -105 -199 -138 -123 -104 242 -124 334 -76 352 70 27 19 43 -140 43 -119 1 -170 -7 -170 -23z"/> <path d="M3210 3787 c-469 -247 -261 -956 258 -878 349 52 495 494 255 774 -115 135 -360 184 -513 104z m334 -83 c157 -92 166 -545 13 -673 -192 -162 -413 -8 -433 302 -21 337 177 512 420 371z"/> <path d="M4000 3787 c0 -12 18 -27 40 -33 38 -10 40 -27 40 -372 0 -335 -3 -365 -40 -402 -63 -63 -56 -64 225 -56 358 10 485 77 547 288 73 253 -50 510 -272 567 -112 29 -540 36 -540 8z m531 -117 c263 -200 165 -632 -154 -680 -131 -20 -137 -2 -137 411 l0 345 111 -12 c77 -8 133 -28 180 -64z"/> <path d="M4960 3790 c0 -11 20 -29 45 -40 44 -20 45 -28 50 -376 l6 -355 -53 -50 -54 -49 188 0 188 0 -55 45 c-51 41 -57 59 -66 220 l-11 175 233 0 233 0 -7 -181 c-6 -166 -11 -185 -57 -220 l-50 -38 190 0 190 0 -55 41 -55 41 0 354 c1 365 4 386 68 410 69 26 12 41 -159 44 -177 2 -198 -7 -124 -56 40 -26 45 -47 45 -175 l0 -146 -215 -4 c-141 -2 -216 4 -217 19 -12 157 7 264 53 302 71 59 67 61 -131 60 -108 -1 -180 -9 -180 -21z"/> <path d="M6080 3798 c0 -9 21 -31 47 -48 164 -107 321 -697 207 -779 -59 -43 -39 -51 131 -51 l165 1 -50 38 c-43 33 -50 56 -56 185 l-7 146 132 213 c72 117 154 227 181 245 80 52 59 69 -81 67 -141 -2 -175 -20 -109 -55 29 -16 38 -34 30 -61 -12 -38 -155 -291 -177 -312 -13 -13 -80 133 -115 250 -23 80 -22 90 12 115 20 15 32 33 25 40 -19 19 -335 25 -335 6z"/> <path d="M7142 3628 c-47 -107 -102 -240 -122 -296 -65 -185 -122 -301 -175 -357 l-52 -55 137 0 138 0 -46 42 c-24 23 -40 54 -35 68 6 14 21 62 34 106 l24 81 153 7 c176 8 193 -3 214 -137 10 -70 5 -97 -23 -128 -35 -38 -33 -39 128 -39 183 0 187 3 103 73 -33 28 -60 62 -60 75 0 13 -33 105 -73 203 -40 99 -102 260 -138 359 -85 235 -101 235 -207 -2z m137 -169 c33 -92 57 -169 55 -170 -2 -1 -59 3 -125 10 l-122 11 59 165 c33 91 63 163 67 158 4 -4 34 -82 66 -174z"/> <path d="M3060 2524 c-286 -130 -217 -564 90 -564 286 0 390 391 144 541 -63 38 -175 49 -234 23z m196 -85 c56 -52 71 -116 59 -244 -23 -243 -284 -239 -325 5 -35 206 137 360 266 239z"/> <path d="M5526 2516 c-135 -65 -106 -212 59 -300 70 -37 128 -82 132 -102 18 -99 -144 -132 -213 -44 -53 66 -64 63 -64 -18 0 -53 10 -70 45 -79 305 -82 455 187 177 318 -146 69 -168 100 -111 158 48 47 105 38 170 -27 68 -67 74 -65 63 25 -10 87 -146 123 -258 69z"/> <path d="M2271 2468 c-17 -68 -1 -83 45 -41 21 18 61 33 91 33 l53 0 0 -220 c0 -133 -8 -220 -20 -220 -11 0 -20 -11 -20 -25 0 -16 34 -25 100 -26 55 -1 100 0 100 2 0 3 -13 30 -30 62 -20 38 -30 117 -30 242 l0 185 58 0 c31 0 68 -13 82 -30 39 -46 60 -36 60 30 l0 60 -238 0 -238 0 -13 -52z"/> <path d="M3609 2481 c26 -29 36 -81 41 -216 6 -199 29 -254 118 -285 226 -79 360 50 348 338 -3 93 4 129 33 161 37 41 37 41 -66 41 -111 0 -119 -6 -73 -53 100 -100 11 -447 -115 -447 -130 0 -207 348 -102 463 32 35 28 37 -93 37 -123 0 -125 -1 -91 -39z"/> <path d="M4340 2511 c0 -7 15 -35 32 -62 40 -61 32 -386 -11 -437 -14 -18 -20 -33 -13 -34 16 -2 169 -2 183 0 6 1 -3 22 -20 46 -31 44 -43 177 -18 202 26 26 90 -32 149 -137 40 -70 79 -113 109 -121 73 -18 98 9 54 59 -46 53 -150 215 -141 221 3 2 31 20 61 39 68 42 74 129 13 185 -41 37 -398 73 -398 39z m319 -83 c66 -63 -57 -196 -150 -161 -43 17 -39 165 6 191 40 23 102 10 144 -30z"/> <path d="M5040 2509 c0 -6 15 -33 32 -60 33 -50 32 -336 -1 -439 -12 -36 -4 -40 71 -40 49 1 88 11 93 25 5 14 -1 25 -13 25 -15 0 -22 78 -22 230 0 191 5 230 30 230 17 0 30 9 30 20 0 11 -49 20 -110 20 -60 0 -110 -5 -110 -11z"/> <path d="M6065 2492 c19 -14 35 -45 35 -67 0 -64 -59 -351 -81 -390 -32 -57 -22 -75 43 -75 56 0 60 4 50 55 -6 30 0 130 13 222 l25 167 73 -187 c40 -103 78 -204 85 -225 21 -61 50 -16 145 222 l86 216 0 -204 c1 -117 -8 -209 -19 -216 -37 -23 -5 -40 73 -39 58 1 75 8 67 30 -21 64 -22 445 -1 466 40 40 21 55 -62 49 -75 -5 -86 -13 -107 -76 -14 -38 -44 -112 -67 -164 -24 -52 -43 -103 -43 -115 0 -84 -87 79 -141 264 l-28 95 -90 -1 c-80 0 -87 -3 -56 -27z"/> </g> </svg>